<svg width="16" height="16" viewBox="0 0 16 16" fill="none" xmlns="http://www.w3.org/2000/svg">
<path d="M13.0902 13.2825H10.8335V9.80167C10.8335 8.97167 10.8166 7.90333 9.65649 7.90333C8.48032 7.90333 8.3008 8.80667 8.3008 9.74083V13.2825H6.0433V6.125H8.21104V7.1H8.24068C8.54383 6.53833 9.28052 5.94417 10.3813 5.94417C12.6676 5.94417 13.091 7.42583 13.091 9.35333V13.2825H13.0902ZM3.49451 5.14583C3.32224 5.14605 3.15162 5.11281 2.99243 5.04801C2.83324 4.9832 2.68861 4.88812 2.56683 4.7682C2.44506 4.64828 2.34853 4.50588 2.28279 4.34918C2.21704 4.19247 2.18337 4.02454 2.1837 3.855C2.18387 3.59986 2.26091 3.3505 2.40509 3.13846C2.54926 2.92641 2.75409 2.76119 2.99367 2.66371C3.23325 2.56623 3.49683 2.54085 3.75107 2.59078C4.00531 2.64072 4.23879 2.76373 4.42199 2.94426C4.60519 3.12478 4.72988 3.35472 4.7803 3.60498C4.83071 3.85525 4.80458 4.11461 4.70521 4.35026C4.60585 4.58592 4.43771 4.78728 4.22205 4.92889C4.0064 5.0705 3.75292 5.146 3.49366 5.14583H3.49451ZM4.6258 13.2825H2.36237V6.125H4.62665V13.2825H4.6258ZM14.2206 0.5H1.23024C0.607011 0.5 0.104874 0.983333 0.104874 1.58083V14.4192C0.104874 15.0167 0.607858 15.5 1.22939 15.5H14.2172C14.8387 15.5 15.3468 15.0167 15.3468 14.4192V1.58083C15.3468 0.983333 14.8387 0.5 14.2172 0.5H14.2198H14.2206Z" fill="white"/>
</svg>
