<svg width="18" height="21" viewBox="0 0 18 21" fill="none" xmlns="http://www.w3.org/2000/svg">
<path d="M15 2.00224H14V1.00224C14 0.737021 13.8946 0.482667 13.7071 0.29513C13.5195 0.107594 13.2652 0.00223732 13 0.00223732C12.7348 0.00223732 12.4804 0.107594 12.2929 0.29513C12.1053 0.482667 12 0.737021 12 1.00224V2.00224H5.99997V1.00224C5.99997 0.737021 5.89461 0.482667 5.70707 0.29513C5.51954 0.107594 5.26518 0.00223732 4.99997 0.00223732C4.73475 0.00223732 4.4804 0.107594 4.29286 0.29513C4.10532 0.482667 3.99997 0.737021 3.99997 1.00224V2.00224H2.99997C2.20432 2.00224 1.44126 2.31831 0.878647 2.88092C0.316038 3.44353 -3.24249e-05 4.20659 -3.24249e-05 5.00224V17.0022C-3.24249e-05 17.7979 0.316038 18.5609 0.878647 19.1236C1.44126 19.6862 2.20432 20.0022 2.99997 20.0022H15C15.7956 20.0022 16.5587 19.6862 17.1213 19.1236C17.6839 18.5609 18 17.7979 18 17.0022V5.00224C18 4.20659 17.6839 3.44353 17.1213 2.88092C16.5587 2.31831 15.7956 2.00224 15 2.00224V2.00224ZM4.99997 15.0022C4.80219 15.0022 4.60885 14.9436 4.4444 14.8337C4.27995 14.7238 4.15178 14.5676 4.07609 14.3849C4.0004 14.2022 3.9806 14.0011 4.01918 13.8071C4.05777 13.6132 4.15301 13.435 4.29286 13.2951C4.43271 13.1553 4.6109 13.06 4.80488 13.0215C4.99886 12.9829 5.19993 13.0027 5.38265 13.0784C5.56538 13.154 5.72156 13.2822 5.83144 13.4467C5.94132 13.6111 5.99997 13.8045 5.99997 14.0022C5.99997 14.2675 5.89461 14.5218 5.70707 14.7093C5.51954 14.8969 5.26518 15.0022 4.99997 15.0022V15.0022ZM13 15.0022H8.99997C8.73475 15.0022 8.4804 14.8969 8.29286 14.7093C8.10532 14.5218 7.99997 14.2675 7.99997 14.0022C7.99997 13.737 8.10532 13.4827 8.29286 13.2951C8.4804 13.1076 8.73475 13.0022 8.99997 13.0022H13C13.2652 13.0022 13.5195 13.1076 13.7071 13.2951C13.8946 13.4827 14 13.737 14 14.0022C14 14.2675 13.8946 14.5218 13.7071 14.7093C13.5195 14.8969 13.2652 15.0022 13 15.0022ZM16 9.00224H1.99997V5.00224C1.99997 4.73702 2.10532 4.48267 2.29286 4.29513C2.4804 4.10759 2.73475 4.00224 2.99997 4.00224H3.99997V5.00224C3.99997 5.26745 4.10532 5.52181 4.29286 5.70934C4.4804 5.89688 4.73475 6.00224 4.99997 6.00224C5.26518 6.00224 5.51954 5.89688 5.70707 5.70934C5.89461 5.52181 5.99997 5.26745 5.99997 5.00224V4.00224H12V5.00224C12 5.26745 12.1053 5.52181 12.2929 5.70934C12.4804 5.89688 12.7348 6.00224 13 6.00224C13.2652 6.00224 13.5195 5.89688 13.7071 5.70934C13.8946 5.52181 14 5.26745 14 5.00224V4.00224H15C15.2652 4.00224 15.5195 4.10759 15.7071 4.29513C15.8946 4.48267 16 4.73702 16 5.00224V9.00224Z" fill="white"/>
</svg>
