<svg width="26" height="26" viewBox="0 0 26 26" fill="none" xmlns="http://www.w3.org/2000/svg">
<path d="M13 0.8125C6.27988 0.8125 0.8125 6.27988 0.8125 13C0.8125 19.7201 6.27988 25.1875 13 25.1875C19.7201 25.1875 25.1875 19.7201 25.1875 13C25.1875 6.27988 19.7201 0.8125 13 0.8125ZM17.4127 16.0873C17.5034 16.1735 17.576 16.277 17.6261 16.3916C17.6762 16.5063 17.7028 16.6298 17.7044 16.755C17.706 16.8801 17.6825 17.0043 17.6354 17.1202C17.5882 17.2361 17.5184 17.3414 17.4299 17.4299C17.3414 17.5184 17.2361 17.5882 17.1202 17.6354C17.0043 17.6825 16.8801 17.706 16.755 17.7044C16.6298 17.7028 16.5063 17.6762 16.3916 17.6261C16.277 17.576 16.1735 17.5034 16.0873 17.4127L13 14.326L9.91269 17.4127C9.73545 17.5811 9.49943 17.6736 9.25497 17.6705C9.01051 17.6673 8.77694 17.5688 8.60406 17.3959C8.43118 17.2231 8.33268 16.9895 8.32955 16.745C8.32642 16.5006 8.41891 16.2646 8.58731 16.0873L11.674 13L8.58731 9.91269C8.41891 9.73545 8.32642 9.49943 8.32955 9.25497C8.33268 9.01051 8.43118 8.77694 8.60406 8.60406C8.77694 8.43118 9.01051 8.33268 9.25497 8.32955C9.49943 8.32642 9.73545 8.41891 9.91269 8.58731L13 11.674L16.0873 8.58731C16.2646 8.41891 16.5006 8.32642 16.745 8.32955C16.9895 8.33268 17.2231 8.43118 17.3959 8.60406C17.5688 8.77694 17.6673 9.01051 17.6705 9.25497C17.6736 9.49943 17.5811 9.73545 17.4127 9.91269L14.326 13L17.4127 16.0873Z" fill="#D45161"/>
</svg>
