<svg width="17" height="20" viewBox="0 0 17 20" fill="none" xmlns="http://www.w3.org/2000/svg">
<path d="M16.1845 1.61957C16.1563 1.45036 16.0922 1.28916 15.9964 1.14685C15.9006 1.00453 15.7754 0.8844 15.6293 0.794558C15.4832 0.704717 15.3195 0.647251 15.1492 0.626035C14.979 0.604818 14.8062 0.620345 14.6425 0.671568L6.2425 3.29597C5.99825 3.37222 5.78477 3.52455 5.63322 3.73071C5.48167 3.93688 5.39999 4.18609 5.4001 4.44197V14.2004C4.85945 13.7949 4.19773 13.5838 3.52215 13.6014C2.84657 13.6189 2.19671 13.8641 1.67786 14.2971C1.15901 14.7301 0.801559 15.3257 0.663431 15.9872C0.525304 16.6487 0.614589 17.3375 0.91682 17.942C1.21905 18.5465 1.71652 19.0312 2.32863 19.3176C2.94074 19.604 3.63163 19.6754 4.28936 19.5201C4.94709 19.3648 5.53313 18.992 5.95252 18.4621C6.37192 17.9322 6.6001 17.2762 6.6001 16.6004V8.04197L15.0001 5.41637V11.8004C14.4595 11.3949 13.7977 11.1838 13.1222 11.2014C12.4466 11.2189 11.7967 11.4641 11.2779 11.8971C10.759 12.3301 10.4016 12.9257 10.2634 13.5872C10.1253 14.2487 10.2146 14.9375 10.5168 15.542C10.819 16.1465 11.3165 16.6312 11.9286 16.9176C12.5407 17.204 13.2316 17.2754 13.8894 17.1201C14.5471 16.9648 15.1331 16.592 15.5525 16.0621C15.9719 15.5322 16.2001 14.8762 16.2001 14.2004V1.81637C16.2001 1.74917 16.1941 1.68437 16.1845 1.61957Z" fill="white"/>
</svg>
