<svg width="222" height="201" viewBox="0 0 222 201" fill="none" xmlns="http://www.w3.org/2000/svg">
<path d="M68.05 79.55H9.55005C4.57949 79.55 0.550049 75.5205 0.550049 70.55V63.4779C0.550049 61.091 1.51746 58.8038 3.16577 57.0774C16.8755 42.7178 16.805 36.2854 3.33374 22.8504C1.5839 21.1053 0.550049 18.7501 0.550049 16.2788V9.34998C0.550049 4.37941 4.57949 0.349976 9.55005 0.349976H59.05H67.15H212.95C217.921 0.349976 221.95 4.37941 221.95 9.34998V16.2788C221.95 18.7501 220.916 21.1053 219.166 22.8504C205.695 36.2854 205.625 42.7178 219.334 57.0774C220.983 58.8038 221.95 61.091 221.95 63.4779V70.55C221.95 75.5205 217.921 79.55 212.95 79.55H154.45C149.479 79.55 145.45 83.5794 145.45 88.55V122.75C145.45 127.721 141.421 131.75 136.45 131.75H120.25C117.268 131.75 114.85 134.168 114.85 137.15C114.85 140.132 117.268 142.55 120.25 142.55H136.45C141.421 142.55 145.45 146.579 145.45 151.55V191.15C145.45 196.121 141.421 200.15 136.45 200.15H111.25H86.05C81.0795 200.15 77.05 196.121 77.05 191.15V88.55C77.05 83.5794 73.0206 79.55 68.05 79.55Z" fill="#72EACD"/>
</svg>
