<svg width="20" height="18" viewBox="0 0 20 18" fill="none" xmlns="http://www.w3.org/2000/svg">
<path d="M12.8 1.61286L19.501 12.7739C20.464 14.3769 19.991 16.4859 18.444 17.4839C17.9248 17.8201 17.3196 17.9992 16.701 17.9999H3.298C1.477 17.9999 0 16.4699 0 14.5809C0 13.9419 0.173 13.3169 0.498 12.7739L7.2 1.61286C8.162 0.00985837 10.196 -0.481142 11.743 0.516858C12.171 0.792858 12.533 1.16786 12.8 1.61286ZM10 13.9999C10.2652 13.9999 10.5196 13.8945 10.7071 13.707C10.8946 13.5194 11 13.2651 11 12.9999C11 12.7346 10.8946 12.4803 10.7071 12.2928C10.5196 12.1052 10.2652 11.9999 10 11.9999C9.73478 11.9999 9.48043 12.1052 9.29289 12.2928C9.10536 12.4803 9 12.7346 9 12.9999C9 13.2651 9.10536 13.5194 9.29289 13.707C9.48043 13.8945 9.73478 13.9999 10 13.9999ZM10 4.99986C9.73478 4.99986 9.48043 5.10522 9.29289 5.29275C9.10536 5.48029 9 5.73464 9 5.99986V9.99986C9 10.2651 9.10536 10.5194 9.29289 10.707C9.48043 10.8945 9.73478 10.9999 10 10.9999C10.2652 10.9999 10.5196 10.8945 10.7071 10.707C10.8946 10.5194 11 10.2651 11 9.99986V5.99986C11 5.73464 10.8946 5.48029 10.7071 5.29275C10.5196 5.10522 10.2652 4.99986 10 4.99986Z" fill="#E1C637"/>
</svg>
