<svg width="17" height="16" viewBox="0 0 17 16" fill="none" xmlns="http://www.w3.org/2000/svg">
<path d="M8.16129 4.25C7.40764 4.25 6.67093 4.46993 6.04429 4.88199C5.41766 5.29404 4.92927 5.87971 4.64086 6.56494C4.35245 7.25016 4.27699 8.00416 4.42402 8.73159C4.57105 9.45902 4.93396 10.1272 5.46687 10.6517C5.99977 11.1761 6.67874 11.5333 7.4179 11.6779C8.15706 11.8226 8.92322 11.7484 9.6195 11.4645C10.3158 11.1807 10.9109 10.7001 11.3296 10.0834C11.7483 9.4667 11.9718 8.74168 11.9718 8C11.9718 7.00544 11.5703 6.05161 10.8557 5.34835C10.1411 4.64509 9.17189 4.25 8.16129 4.25ZM8.16129 10.5C7.65886 10.5 7.16771 10.3534 6.74996 10.0787C6.3322 9.80397 6.00661 9.41352 5.81433 8.95671C5.62206 8.49989 5.57176 7.99723 5.66978 7.51227C5.76779 7.02732 6.00974 6.58186 6.36501 6.23223C6.72028 5.8826 7.17292 5.6445 7.66569 5.54804C8.15847 5.45157 8.66924 5.50108 9.13342 5.6903C9.59761 5.87952 9.99435 6.19995 10.2735 6.61107C10.5526 7.0222 10.7016 7.50555 10.7016 8C10.6995 8.66241 10.4312 9.2971 9.95525 9.76549C9.4793 10.2339 8.83438 10.4979 8.16129 10.5ZM11.6542 0.1875H4.66834C3.48931 0.1875 2.35856 0.648436 1.52485 1.46891C0.691149 2.28938 0.222778 3.40218 0.222778 4.5625V11.4375C0.222778 12.5978 0.691149 13.7106 1.52485 14.5311C2.35856 15.3516 3.48931 15.8125 4.66834 15.8125H11.6542C12.8333 15.8125 13.964 15.3516 14.7977 14.5311C15.6314 13.7106 16.0998 12.5978 16.0998 11.4375V4.5625C16.0998 3.40218 15.6314 2.28938 14.7977 1.46891C13.964 0.648436 12.8333 0.1875 11.6542 0.1875ZM14.8296 11.4375C14.8296 11.8479 14.7475 12.2542 14.5879 12.6334C14.4283 13.0125 14.1944 13.357 13.8996 13.6472C13.6047 13.9374 13.2547 14.1676 12.8694 14.3246C12.4841 14.4817 12.0712 14.5625 11.6542 14.5625H4.66834C4.25134 14.5625 3.83843 14.4817 3.45317 14.3246C3.06791 14.1676 2.71786 13.9374 2.42299 13.6472C2.12813 13.357 1.89423 13.0125 1.73465 12.6334C1.57507 12.2542 1.49294 11.8479 1.49294 11.4375V4.5625C1.49294 3.7337 1.82749 2.93884 2.42299 2.35279C3.0185 1.76674 3.82617 1.4375 4.66834 1.4375H11.6542C12.0712 1.4375 12.4841 1.51833 12.8694 1.67538C13.2547 1.83242 13.6047 2.06261 13.8996 2.35279C14.1944 2.64297 14.4283 2.98747 14.5879 3.36661C14.7475 3.74576 14.8296 4.15212 14.8296 4.5625V11.4375ZM13.2419 3.9375C13.2419 4.12292 13.1861 4.30418 13.0814 4.45835C12.9767 4.61252 12.8279 4.73268 12.6539 4.80364C12.4798 4.87459 12.2883 4.89316 12.1035 4.85699C11.9187 4.82081 11.7489 4.73152 11.6157 4.60041C11.4825 4.4693 11.3918 4.30225 11.355 4.1204C11.3182 3.93854 11.3371 3.75004 11.4092 3.57873C11.4813 3.40743 11.6034 3.26101 11.7601 3.158C11.9167 3.05498 12.1009 3 12.2893 3C12.542 3 12.7843 3.09877 12.9629 3.27459C13.1416 3.4504 13.2419 3.68886 13.2419 3.9375Z" fill="white"/>
</svg>
