<svg width="16" height="17" viewBox="0 0 16 17" fill="none" xmlns="http://www.w3.org/2000/svg">
<path d="M1.5 0.582169C0.67 0.582169 0 1.25217 0 2.08017V15.0612C0 15.8892 0.671 16.5592 1.5 16.5592H2.5C3.327 16.5592 3.999 15.8892 3.999 15.0612V2.08017C3.999 1.25217 3.327 0.582169 2.499 0.582169H1.499H1.5ZM6.498 0.582169C5.67 0.582169 4.998 1.25217 4.998 2.08017V15.0612C4.998 15.8892 5.67 16.5592 6.498 16.5592H7.498C8.326 16.5592 8.997 15.8892 8.997 15.0612V2.08017C8.997 1.25317 8.326 0.582169 7.497 0.582169H6.497H6.498ZM13.718 4.73917C13.6723 4.54121 13.5869 4.3546 13.4669 4.19065C13.3469 4.0267 13.1949 3.88883 13.02 3.78541C12.8452 3.68198 12.6511 3.61516 12.4496 3.58899C12.2482 3.56282 12.0435 3.57785 11.848 3.63317L11.103 3.84317C10.739 3.94607 10.4275 4.18285 10.2308 4.50597C10.0342 4.82909 9.96712 5.21462 10.043 5.58517L12.046 15.3842C12.0869 15.5828 12.1677 15.771 12.2834 15.9376C12.3992 16.1041 12.5474 16.2454 12.7193 16.353C12.8912 16.4606 13.0832 16.5322 13.2835 16.5635C13.4839 16.5948 13.6885 16.5852 13.885 16.5352L14.87 16.2852C15.66 16.0852 16.144 15.2912 15.962 14.4982L13.718 4.73817V4.73917Z" fill="#222222"/>
</svg>
