<svg width="17" height="20" viewBox="0 0 17 20" fill="none" xmlns="http://www.w3.org/2000/svg">
<path d="M8.625 10C9.175 10 9.646 9.804 10.038 9.412C10.4293 9.02067 10.625 8.55 10.625 8C10.625 7.45 10.4293 6.979 10.038 6.587C9.646 6.19567 9.175 6 8.625 6C8.075 6 7.60433 6.19567 7.213 6.587C6.821 6.979 6.625 7.45 6.625 8C6.625 8.55 6.821 9.02067 7.213 9.412C7.60433 9.804 8.075 10 8.625 10ZM8.625 20C5.94167 17.7167 3.93767 15.5957 2.613 13.637C1.28767 11.679 0.625 9.86667 0.625 8.2C0.625 5.7 1.42933 3.70833 3.038 2.225C4.646 0.741667 6.50833 0 8.625 0C10.7417 0 12.604 0.741667 14.212 2.225C15.8207 3.70833 16.625 5.7 16.625 8.2C16.625 9.86667 15.9627 11.679 14.638 13.637C13.3127 15.5957 11.3083 17.7167 8.625 20Z" fill="white"/>
</svg>
