<svg width="18" height="14" viewBox="0 0 18 14" fill="none" xmlns="http://www.w3.org/2000/svg">
<path d="M10.875 10.125V11.6875C10.875 12.1019 10.7104 12.4993 10.4174 12.7924C10.1243 13.0854 9.7269 13.25 9.3125 13.25H3.0625C2.6481 13.25 2.25067 13.0854 1.95765 12.7924C1.66462 12.4993 1.5 12.1019 1.5 11.6875V2.3125C1.5 1.8981 1.66462 1.50067 1.95765 1.20765C2.25067 0.91462 2.6481 0.75 3.0625 0.75H9C9.86289 0.75 10.875 1.44961 10.875 2.3125V3.875M13.375 10.125L16.5 7L13.375 3.875M5.875 7H15.875" stroke="white" stroke-width="1.25" stroke-linecap="round" stroke-linejoin="round"/>
</svg>
