<svg width="21" height="21" viewBox="0 0 21 21" fill="none" xmlns="http://www.w3.org/2000/svg">
<path d="M10.3333 0.17804C15.8563 0.17804 20.3333 4.65504 20.3333 10.178C20.3345 11.7306 19.9738 13.2621 19.2796 14.6508C18.5854 16.0396 17.5769 17.2473 16.3343 18.178H18.3333C18.5985 18.178 18.8528 18.2834 19.0404 18.4709C19.2279 18.6585 19.3333 18.9128 19.3333 19.178C19.3333 19.4433 19.2279 19.6976 19.0404 19.8851C18.8528 20.0727 18.5985 20.178 18.3333 20.178H10.3333C4.81025 20.178 0.333252 15.701 0.333252 10.178C0.333252 4.65504 4.81025 0.17804 10.3333 0.17804ZM10.3333 12.178C9.80282 12.178 9.29411 12.3888 8.91904 12.7638C8.54397 13.1389 8.33325 13.6476 8.33325 14.178C8.33325 14.7085 8.54397 15.2172 8.91904 15.5923C9.29411 15.9673 9.80282 16.178 10.3333 16.178C10.8637 16.178 11.3724 15.9673 11.7475 15.5923C12.1225 15.2172 12.3333 14.7085 12.3333 14.178C12.3333 13.6476 12.1225 13.1389 11.7475 12.7638C11.3724 12.3888 10.8637 12.178 10.3333 12.178ZM6.33325 8.17804C5.80282 8.17804 5.29411 8.38875 4.91904 8.76383C4.54397 9.1389 4.33325 9.64761 4.33325 10.178C4.33325 10.7085 4.54397 11.2172 4.91904 11.5923C5.29411 11.9673 5.80282 12.178 6.33325 12.178C6.86369 12.178 7.37239 11.9673 7.74747 11.5923C8.12254 11.2172 8.33325 10.7085 8.33325 10.178C8.33325 9.64761 8.12254 9.1389 7.74747 8.76383C7.37239 8.38875 6.86369 8.17804 6.33325 8.17804ZM14.3333 8.17804C13.8028 8.17804 13.2941 8.38875 12.919 8.76383C12.544 9.1389 12.3333 9.64761 12.3333 10.178C12.3333 10.7085 12.544 11.2172 12.919 11.5923C13.2941 11.9673 13.8028 12.178 14.3333 12.178C14.8637 12.178 15.3724 11.9673 15.7475 11.5923C16.1225 11.2172 16.3333 10.7085 16.3333 10.178C16.3333 9.64761 16.1225 9.1389 15.7475 8.76383C15.3724 8.38875 14.8637 8.17804 14.3333 8.17804ZM10.3333 4.17804C9.80282 4.17804 9.29411 4.38875 8.91904 4.76383C8.54397 5.1389 8.33325 5.64761 8.33325 6.17804C8.33325 6.70847 8.54397 7.21718 8.91904 7.59225C9.29411 7.96733 9.80282 8.17804 10.3333 8.17804C10.8637 8.17804 11.3724 7.96733 11.7475 7.59225C12.1225 7.21718 12.3333 6.70847 12.3333 6.17804C12.3333 5.64761 12.1225 5.1389 11.7475 4.76383C11.3724 4.38875 10.8637 4.17804 10.3333 4.17804Z" fill="white"/>
</svg>
