<svg width="100" height="88" viewBox="0 0 100 88" fill="none" xmlns="http://www.w3.org/2000/svg">
<path d="M100 66.125C100 71.9266 97.6953 77.4906 93.593 81.593C89.4906 85.6953 83.9266 88 78.125 88C72.3234 88 66.7594 85.6953 62.657 81.593C58.5547 77.4906 56.25 71.9266 56.25 66.125C56.25 60.3234 58.5547 54.7594 62.657 50.657C66.7594 46.5547 72.3234 44.25 78.125 44.25C83.9266 44.25 89.4906 46.5547 93.593 50.657C97.6953 54.7594 100 60.3234 100 66.125ZM69.6625 57.6625C69.3715 57.9528 69.1406 58.2976 68.983 58.6773C68.8255 59.0569 68.7444 59.464 68.7444 59.875C68.7444 60.286 68.8255 60.6931 68.983 61.0727C69.1406 61.4524 69.3715 61.7972 69.6625 62.0875L73.7063 66.125L69.6625 70.1625C69.0757 70.7493 68.7461 71.5452 68.7461 72.375C68.7461 73.2048 69.0757 74.0007 69.6625 74.5875C70.2493 75.1743 71.0452 75.5039 71.875 75.5039C72.7048 75.5039 73.5007 75.1743 74.0875 74.5875L78.125 70.5437L82.1625 74.5875C82.7493 75.1743 83.5452 75.5039 84.375 75.5039C85.2048 75.5039 86.0007 75.1743 86.5875 74.5875C87.1743 74.0007 87.5039 73.2048 87.5039 72.375C87.5039 71.5452 87.1743 70.7493 86.5875 70.1625L82.5437 66.125L86.5875 62.0875C87.1743 61.5007 87.5039 60.7048 87.5039 59.875C87.5039 59.0452 87.1743 58.2493 86.5875 57.6625C86.0007 57.0757 85.2048 56.7461 84.375 56.7461C83.5452 56.7461 82.7493 57.0757 82.1625 57.6625L78.125 61.7063L74.0875 57.6625C73.7972 57.3715 73.4524 57.1406 73.0727 56.983C72.6931 56.8255 72.286 56.7444 71.875 56.7444C71.464 56.7444 71.0569 56.8255 70.6773 56.983C70.2976 57.1406 69.9528 57.3715 69.6625 57.6625Z" fill="#D45161"/>
<path d="M15.625 19.25C16.4538 19.25 17.2487 18.9208 17.8347 18.3347C18.4208 17.7487 18.75 16.9538 18.75 16.125C18.75 15.2962 18.4208 14.5013 17.8347 13.9153C17.2487 13.3292 16.4538 13 15.625 13C14.7962 13 14.0013 13.3292 13.4153 13.9153C12.8292 14.5013 12.5 15.2962 12.5 16.125C12.5 16.9538 12.8292 17.7487 13.4153 18.3347C14.0013 18.9208 14.7962 19.25 15.625 19.25ZM25 19.25C25.8288 19.25 26.6237 18.9208 27.2097 18.3347C27.7958 17.7487 28.125 16.9538 28.125 16.125C28.125 15.2962 27.7958 14.5013 27.2097 13.9153C26.6237 13.3292 25.8288 13 25 13C24.1712 13 23.3763 13.3292 22.7903 13.9153C22.2042 14.5013 21.875 15.2962 21.875 16.125C21.875 16.9538 22.2042 17.7487 22.7903 18.3347C23.3763 18.9208 24.1712 19.25 25 19.25ZM37.5 16.125C37.5 16.9538 37.1708 17.7487 36.5847 18.3347C35.9987 18.9208 35.2038 19.25 34.375 19.25C33.5462 19.25 32.7513 18.9208 32.1653 18.3347C31.5792 17.7487 31.25 16.9538 31.25 16.125C31.25 15.2962 31.5792 14.5013 32.1653 13.9153C32.7513 13.3292 33.5462 13 34.375 13C35.2038 13 35.9987 13.3292 36.5847 13.9153C37.1708 14.5013 37.5 15.2962 37.5 16.125Z" fill="white"/>
<path id="circle" d="M0 13C0 9.68479 1.31696 6.50537 3.66117 4.16116C6.00537 1.81696 9.18479 0.5 12.5 0.5H81.25C84.5652 0.5 87.7446 1.81696 90.0888 4.16116C92.433 6.50537 93.75 9.68479 93.75 13V38C93.75 38.8288 93.4208 39.6237 92.8347 40.2097C92.2487 40.7958 91.4538 41.125 90.625 41.125C89.7962 41.125 89.0013 40.7958 88.4153 40.2097C87.8292 39.6237 87.5 38.8288 87.5 38V31.75H6.25V63C6.25 64.6576 6.90848 66.2473 8.08058 67.4194C9.25268 68.5915 10.8424 69.25 12.5 69.25H46.875C47.7038 69.25 48.4987 69.5792 49.0847 70.1653C49.6708 70.7513 50 71.5462 50 72.375C50 73.2038 49.6708 73.9987 49.0847 74.5847C48.4987 75.1708 47.7038 75.5 46.875 75.5H12.5C9.18479 75.5 6.00537 74.183 3.66117 71.8388C1.31696 69.4946 0 66.3152 0 63V13ZM6.25 25.5H87.5V13C87.5 11.3424 86.8415 9.75268 85.6694 8.58058C84.4973 7.40848 82.9076 6.75 81.25 6.75H12.5C10.8424 6.75 9.25268 7.40848 8.08058 8.58058C6.90848 9.75268 6.25 11.3424 6.25 13V25.5Z" fill="white"/>
</svg>
