<svg width="18" height="18" viewBox="0 0 18 18" fill="none" xmlns="http://www.w3.org/2000/svg">
<path d="M3.20337 13.7594C3.20337 13.7594 4.87512 11.6249 9.00013 11.6249C13.1251 11.6249 14.7976 13.7594 14.7976 13.7594M9.00001 1.49994C4.85775 1.49994 1.5 4.85768 1.5 8.99992C1.5 13.1422 4.85775 16.4999 9.00001 16.4999C13.1423 16.4999 16.5 13.1422 16.5 8.99992C16.5 4.85768 13.1423 1.49994 9.00001 1.49994ZM9.00013 8.99987C9.59686 8.99987 10.1692 8.76282 10.5911 8.34086C11.0131 7.9189 11.2501 7.34661 11.2501 6.74987C11.2501 6.15314 11.0131 5.58084 10.5911 5.15889C10.1692 4.73693 9.59686 4.49988 9.00013 4.49988C8.40339 4.49988 7.83109 4.73693 7.40913 5.15889C6.98718 5.58084 6.75012 6.15314 6.75012 6.74987C6.75012 7.34661 6.98718 7.9189 7.40913 8.34086C7.83109 8.76282 8.40339 8.99987 9.00013 8.99987Z" stroke="white" stroke-width="1.125" stroke-linecap="round" stroke-linejoin="round"/>
</svg>
