<svg width="22" height="22" viewBox="0 0 22 22" fill="none" xmlns="http://www.w3.org/2000/svg">
<path d="M20.0002 20L15.6572 15.657M15.6572 15.657C16.4001 14.9141 16.9894 14.0322 17.3914 13.0615C17.7935 12.0909 18.0004 11.0506 18.0004 9.99999C18.0004 8.94939 17.7935 7.90908 17.3914 6.93845C16.9894 5.96782 16.4001 5.08588 15.6572 4.34299C14.9143 3.6001 14.0324 3.01081 13.0618 2.60877C12.0911 2.20672 11.0508 1.99979 10.0002 1.99979C8.9496 1.99979 7.90929 2.20672 6.93866 2.60877C5.96803 3.01081 5.08609 3.6001 4.34321 4.34299C2.84288 5.84332 2 7.87821 2 9.99999C2 12.1218 2.84288 14.1567 4.34321 15.657C5.84354 17.1573 7.87842 18.0002 10.0002 18.0002C12.122 18.0002 14.1569 17.1573 15.6572 15.657Z" stroke="#222222" stroke-width="2.5" stroke-linecap="round" stroke-linejoin="round"/>
</svg>
