<svg id="gear" width="18" height="18" viewBox="0 0 18 18" fill="none" xmlns="http://www.w3.org/2000/svg">
<path d="M8.99997 5.25004C8.25829 5.25004 7.53327 5.46997 6.91659 5.88203C6.2999 6.29408 5.81926 6.87975 5.53543 7.56497C5.2516 8.2502 5.17734 9.0042 5.32203 9.73162C5.46672 10.4591 5.82388 11.1272 6.34832 11.6517C6.87277 12.1761 7.54096 12.5333 8.26839 12.678C8.99581 12.8227 9.74981 12.7484 10.435 12.4646C11.1203 12.1808 11.7059 11.7001 12.118 11.0834C12.53 10.4667 12.75 9.74172 12.75 9.00004C12.7489 8.00579 12.3535 7.05256 11.6505 6.34953C10.9474 5.64649 9.99422 5.25107 8.99997 5.25004ZM8.99997 11.5C8.50552 11.5 8.02217 11.3534 7.61105 11.0787C7.19993 10.804 6.87949 10.4136 6.69028 9.95674C6.50106 9.49993 6.45155 8.99726 6.54801 8.51231C6.64447 8.02736 6.88258 7.5819 7.23221 7.23227C7.58184 6.88264 8.0273 6.64454 8.51225 6.54807C8.9972 6.45161 9.49987 6.50112 9.95668 6.69034C10.4135 6.87956 10.8039 7.19999 11.0786 7.61111C11.3534 8.02223 11.5 8.50558 11.5 9.00004C11.5 9.66308 11.2366 10.299 10.7677 10.7678C10.2989 11.2366 9.66302 11.5 8.99997 11.5ZM15.875 9.16879C15.8781 9.05629 15.8781 8.94379 15.875 8.83129L17.0406 7.37504C17.1017 7.29858 17.144 7.20883 17.1641 7.11303C17.1842 7.01722 17.1815 6.91804 17.1562 6.82347C16.9651 6.10519 16.6793 5.41554 16.3062 4.77269C16.2574 4.68857 16.1896 4.617 16.1082 4.5637C16.0268 4.5104 15.9341 4.47683 15.8375 4.46566L13.9843 4.25941C13.9073 4.17816 13.8291 4.10004 13.75 4.02504L13.5312 2.16722C13.52 2.07051 13.4863 1.97777 13.4328 1.89639C13.3794 1.815 13.3077 1.74723 13.2234 1.69847C12.5803 1.32609 11.8907 1.04053 11.1726 0.849254C11.078 0.824096 10.9788 0.821523 10.883 0.841742C10.7872 0.861962 10.6975 0.904408 10.6211 0.965661L9.16873 2.12504H8.83122L7.37497 0.961754C7.29851 0.900636 7.20877 0.858331 7.11296 0.838248C7.01716 0.818164 6.91798 0.820864 6.82341 0.846129C6.10525 1.03756 5.41564 1.32338 4.77263 1.69613C4.6885 1.74498 4.61694 1.81279 4.56364 1.89417C4.51034 1.97555 4.47677 2.06824 4.4656 2.16488L4.25935 4.02113C4.1781 4.09873 4.09997 4.17686 4.02497 4.2555L2.16716 4.46879C2.07045 4.48004 1.97771 4.51373 1.89633 4.56717C1.81494 4.62061 1.74717 4.69233 1.69841 4.7766C1.32603 5.4197 1.04047 6.10929 0.849193 6.82738C0.824035 6.92201 0.821462 7.02122 0.841681 7.11703C0.861901 7.21284 0.904347 7.30255 0.9656 7.37894L2.12497 8.83129V9.16879L0.961693 10.625C0.900575 10.7015 0.85827 10.7912 0.838186 10.887C0.818103 10.9828 0.820803 11.082 0.846068 11.1766C1.03715 11.8949 1.323 12.5845 1.69607 13.2274C1.74492 13.3115 1.81273 13.3831 1.89411 13.4364C1.97548 13.4897 2.06818 13.5232 2.16482 13.5344L4.01794 13.7407C4.09555 13.8219 4.17367 13.9 4.25232 13.975L4.46872 15.8328C4.47998 15.9296 4.51367 16.0223 4.56711 16.1037C4.62055 16.1851 4.69226 16.2528 4.77654 16.3016C5.41963 16.674 6.10923 16.9595 6.82732 17.1508C6.92195 17.176 7.02116 17.1785 7.11697 17.1583C7.21277 17.1381 7.30249 17.0957 7.37888 17.0344L8.83122 15.875C8.94372 15.8782 9.05623 15.8782 9.16873 15.875L10.625 17.0407C10.7014 17.1018 10.7912 17.1441 10.887 17.1642C10.9828 17.1843 11.082 17.1816 11.1765 17.1563C11.8948 16.9652 12.5845 16.6794 13.2273 16.3063C13.3114 16.2574 13.383 16.1896 13.4363 16.1082C13.4896 16.0269 13.5232 15.9342 13.5343 15.8375L13.7406 13.9844C13.8218 13.9073 13.9 13.8292 13.975 13.75L15.8328 13.5313C15.9295 13.52 16.0222 13.4863 16.1036 13.4329C16.185 13.3795 16.2528 13.3077 16.3015 13.2235C16.6739 12.5804 16.9595 11.8908 17.1508 11.1727C17.1759 11.0781 17.1785 10.9788 17.1583 10.883C17.138 10.7872 17.0956 10.6975 17.0343 10.6211L15.875 9.16879ZM14.6172 8.66097C14.6304 8.88682 14.6304 9.11325 14.6172 9.3391C14.6079 9.49372 14.6563 9.64629 14.7531 9.76722L15.8617 11.1524C15.7345 11.5567 15.5716 11.9488 15.375 12.3243L13.6093 12.5243C13.4556 12.5413 13.3136 12.6148 13.2109 12.7305C13.0605 12.8996 12.9004 13.0598 12.7312 13.2102C12.6155 13.3129 12.542 13.4549 12.525 13.6086L12.3289 15.3727C11.9535 15.5694 11.5613 15.7323 11.157 15.8594L9.77107 14.7508C9.66016 14.6622 9.5224 14.614 9.38044 14.6141H9.34294C9.1171 14.6274 8.89066 14.6274 8.66482 14.6141C8.5102 14.6048 8.35763 14.6532 8.23669 14.75L6.84763 15.8594C6.44336 15.7322 6.05119 15.5693 5.67576 15.3727L5.47576 13.6094C5.45869 13.4556 5.3852 13.3137 5.26951 13.211C5.10037 13.0606 4.9402 12.9004 4.78982 12.7313C4.68711 12.6156 4.54514 12.5421 4.39138 12.525L2.62732 12.3282C2.43059 11.9528 2.26771 11.5606 2.1406 11.1563L3.24919 9.77035C3.34599 9.64942 3.39444 9.49685 3.38513 9.34222C3.37185 9.11638 3.37185 8.88994 3.38513 8.6641C3.39444 8.50947 3.34599 8.35691 3.24919 8.23597L2.1406 6.84769C2.26781 6.44342 2.43069 6.05125 2.62732 5.67582L4.3906 5.47582C4.54436 5.45875 4.68633 5.38526 4.78904 5.26957C4.93942 5.10043 5.09959 4.94026 5.26872 4.78988C5.38488 4.6871 5.45867 4.54481 5.47576 4.39066L5.67185 2.62738C6.04724 2.43065 6.43942 2.26777 6.84372 2.14066L8.22966 3.24925C8.35059 3.34606 8.50316 3.3945 8.65779 3.38519C8.88363 3.37191 9.11007 3.37191 9.33591 3.38519C9.49054 3.3945 9.64311 3.34606 9.76404 3.24925L11.1523 2.14066C11.5566 2.26787 11.9488 2.43075 12.3242 2.62738L12.5242 4.39066C12.5413 4.54442 12.6148 4.68639 12.7304 4.7891C12.8996 4.93948 13.0597 5.09965 13.2101 5.26879C13.3128 5.38448 13.4548 5.45797 13.6086 5.47504L15.3726 5.67113C15.5694 6.04652 15.7322 6.4387 15.8593 6.843L14.7508 8.22894C14.653 8.35089 14.6045 8.50503 14.6148 8.66097H14.6172Z" fill="white"/>
</svg>
