<svg width="193" height="156" viewBox="0 0 193 156" fill="none" xmlns="http://www.w3.org/2000/svg">
<path fill-rule="evenodd" clip-rule="evenodd" d="M24.3901 15.1728C24.3901 6.85674 31.1329 0.121994 39.441 0.121994H177.909C186.217 0.121994 192.959 6.86477 192.959 15.1728V39.4629C192.96 40.5203 192.682 41.5593 192.154 42.4752C191.625 43.3911 190.865 44.1517 189.949 44.6805C187.2 46.2635 184.916 48.5432 183.328 51.2897C181.741 54.0363 180.905 57.1528 180.905 60.3253C180.905 63.4978 181.741 66.6143 183.328 69.3609C184.916 72.1075 187.2 74.3871 189.949 75.9701C190.865 76.4989 191.625 77.2595 192.154 78.1754C192.682 79.0913 192.96 80.1303 192.959 81.1878V105.478C192.959 113.786 186.217 120.529 177.909 120.529H39.441C35.4492 120.529 31.621 118.943 28.7984 116.12C25.9759 113.298 24.3901 109.47 24.3901 105.478V81.1878C24.3887 80.1311 24.6653 79.0927 25.1923 78.1768C25.7193 77.2609 26.478 76.4999 27.3923 75.9701C30.1416 74.3871 32.4252 72.1075 34.0131 69.3609C35.6009 66.6143 36.437 63.4978 36.437 60.3253C36.437 57.1528 35.6009 54.0363 34.0131 51.2897C32.4252 48.5432 30.1416 46.2635 27.3923 44.6805C26.478 44.1507 25.7193 43.3897 25.1923 42.4738C24.6653 41.5579 24.3887 40.5195 24.3901 39.4629V15.1728ZM144.797 6.14233C146.393 6.14233 147.925 6.77661 149.054 7.90564C150.183 9.03467 150.817 10.566 150.817 12.1627V18.183C150.817 19.7797 150.183 21.311 149.054 22.44C147.925 23.569 146.393 24.2033 144.797 24.2033C143.2 24.2033 141.669 23.569 140.54 22.44C139.411 21.311 138.776 19.7797 138.776 18.183V12.1627C138.776 10.566 139.411 9.03467 140.54 7.90564C141.669 6.77661 143.2 6.14233 144.797 6.14233ZM150.817 42.2643C150.817 40.6676 150.183 39.1363 149.054 38.0073C147.925 36.8783 146.393 36.244 144.797 36.244C143.2 36.244 141.669 36.8783 140.54 38.0073C139.411 39.1363 138.776 40.6676 138.776 42.2643V48.2846C138.776 49.8813 139.411 51.4126 140.54 52.5417C141.669 53.6707 143.2 54.305 144.797 54.305C146.393 54.305 147.925 53.6707 149.054 52.5417C150.183 51.4126 150.817 49.8813 150.817 48.2846V42.2643ZM144.797 66.3456C146.393 66.3456 147.925 66.9799 149.054 68.109C150.183 69.238 150.817 70.7693 150.817 72.366V78.3863C150.817 79.983 150.183 81.5143 149.054 82.6433C147.925 83.7723 146.393 84.4066 144.797 84.4066C143.2 84.4066 141.669 83.7723 140.54 82.6433C139.411 81.5143 138.776 79.983 138.776 78.3863V72.366C138.776 70.7693 139.411 69.238 140.54 68.109C141.669 66.9799 143.2 66.3456 144.797 66.3456ZM150.817 102.468C150.817 100.871 150.183 99.3396 149.054 98.2106C147.925 97.0816 146.393 96.4473 144.797 96.4473C143.2 96.4473 141.669 97.0816 140.54 98.2106C139.411 99.3396 138.776 100.871 138.776 102.468V108.488C138.776 110.085 139.411 111.616 140.54 112.745C141.669 113.874 143.2 114.508 144.797 114.508C146.393 114.508 147.925 113.874 149.054 112.745C150.183 111.616 150.817 110.085 150.817 108.488V102.468ZM60.5121 60.3253C60.5121 58.7286 61.1464 57.1973 62.2754 56.0683C63.4045 54.9393 64.9358 54.305 66.5325 54.305H108.675C110.271 54.305 111.803 54.9393 112.932 56.0683C114.061 57.1973 114.695 58.7286 114.695 60.3253C114.695 61.922 114.061 63.4533 112.932 64.5823C111.803 65.7114 110.271 66.3456 108.675 66.3456H66.5325C64.9358 66.3456 63.4045 65.7114 62.2754 64.5823C61.1464 63.4533 60.5121 61.922 60.5121 60.3253ZM66.5325 78.3863C64.9358 78.3863 63.4045 79.0206 62.2754 80.1496C61.1464 81.2786 60.5121 82.8099 60.5121 84.4066C60.5121 86.0033 61.1464 87.5346 62.2754 88.6636C63.4045 89.7927 64.9358 90.427 66.5325 90.427H90.6138C92.2105 90.427 93.7418 89.7927 94.8708 88.6636C95.9998 87.5346 96.6341 86.0033 96.6341 84.4066C96.6341 82.8099 95.9998 81.2786 94.8708 80.1496C93.7418 79.0206 92.2105 78.3863 90.6138 78.3863H66.5325Z" fill="#EFBA89"/>
<circle cx="30.8735" cy="124.542" r="30.8735" fill="#56C4A9"/>
<path d="M29.6693 133.465C28.8953 134.229 27.8504 134.655 26.7629 134.651C25.6754 134.648 24.6336 134.213 23.8651 133.444L19.3575 128.937C18.2255 127.804 18.2461 125.973 19.4193 124.882C20.5307 123.811 22.3008 123.853 23.3711 124.923L26.7672 128.319L40.0016 115.085C41.1131 113.973 42.9037 113.973 44.0152 115.085L44.0975 115.167C45.2089 116.278 45.2089 118.09 44.0769 119.201L29.6693 133.465Z" fill="white"/>
</svg>
