<svg width="12.47" height="17" viewBox="0 0 11 15" fill="none" xmlns="http://www.w3.org/2000/svg">
<path fill-rule="evenodd" clip-rule="evenodd" d="M4.56257 0.75C4.01556 0.75 3.49095 0.967299 3.10416 1.35409C2.71737 1.74089 2.50007 2.26549 2.50007 2.8125V3.14475C1.90677 3.20197 1.31527 3.2765 0.726319 3.36825C0.652255 3.37834 0.580945 3.40309 0.516556 3.44105C0.452167 3.47902 0.39599 3.52943 0.351308 3.58936C0.306626 3.64928 0.274335 3.71751 0.256323 3.79005C0.23831 3.8626 0.234937 3.938 0.2464 4.01187C0.257864 4.08573 0.283933 4.15657 0.323086 4.22024C0.362239 4.28391 0.41369 4.33915 0.474433 4.38271C0.535175 4.42627 0.60399 4.45729 0.676857 4.47395C0.749724 4.49061 0.825181 4.49258 0.898819 4.47975L1.01057 4.46325L1.64132 12.3517C1.68261 12.8686 1.9171 13.351 2.29806 13.7028C2.67903 14.0546 3.17853 14.2499 3.69707 14.25H7.30232C7.82087 14.2502 8.32045 14.055 8.70156 13.7033C9.08267 13.3517 9.31734 12.8694 9.35882 12.3525L9.98957 4.4625L10.1013 4.47975C10.2473 4.49964 10.3953 4.46143 10.5135 4.37334C10.6316 4.28524 10.7105 4.15429 10.7331 4.00866C10.7557 3.86303 10.7202 3.71435 10.6344 3.59458C10.5485 3.47482 10.419 3.39355 10.2738 3.36825C9.68486 3.27659 9.09336 3.20206 8.50007 3.14475V2.8125C8.50007 2.26549 8.28277 1.74089 7.89598 1.35409C7.50918 0.967299 6.98458 0.75 6.43757 0.75H4.56257ZM5.50007 3C6.13007 3 6.75482 3.01875 7.37507 3.05625V2.8125C7.37507 2.295 6.95507 1.875 6.43757 1.875H4.56257C4.04507 1.875 3.62507 2.295 3.62507 2.8125V3.05625C4.24532 3.01875 4.87007 3 5.50007 3ZM4.43507 5.79C4.4291 5.64082 4.36412 5.50011 4.25441 5.39884C4.1447 5.29757 3.99925 5.24403 3.85007 5.25C3.70088 5.25597 3.56018 5.32095 3.45891 5.43066C3.35764 5.54037 3.3041 5.68582 3.31007 5.835L3.53507 11.46C3.53802 11.5339 3.5555 11.6064 3.5865 11.6735C3.6175 11.7407 3.66141 11.801 3.71573 11.8512C3.77005 11.9013 3.83372 11.9403 3.9031 11.9658C3.97247 11.9913 4.0462 12.003 4.12007 12C4.19394 11.997 4.2665 11.9796 4.33362 11.9486C4.40073 11.9176 4.46108 11.8737 4.51123 11.8193C4.56137 11.765 4.60032 11.7013 4.62586 11.632C4.6514 11.5626 4.66302 11.4889 4.66007 11.415L4.43507 5.79ZM7.69007 5.835C7.69302 5.76113 7.6814 5.6874 7.65586 5.61803C7.63032 5.54865 7.59137 5.48498 7.54123 5.43066C7.49108 5.37634 7.43073 5.33243 7.36362 5.30143C7.2965 5.27043 7.22394 5.25295 7.15007 5.25C7.00089 5.24403 6.85544 5.29757 6.74573 5.39884C6.63602 5.50011 6.57104 5.64082 6.56507 5.79L6.34007 11.415C6.33711 11.4889 6.34874 11.5626 6.37428 11.632C6.39982 11.7013 6.43877 11.765 6.48891 11.8193C6.53906 11.8737 6.59941 11.9176 6.66652 11.9486C6.73364 11.9796 6.8062 11.997 6.88007 12C6.95394 12.003 7.02767 11.9913 7.09704 11.9658C7.16642 11.9403 7.23008 11.9013 7.28441 11.8512C7.33873 11.801 7.38264 11.7407 7.41364 11.6735C7.44464 11.6064 7.46211 11.5339 7.46507 11.46L7.69007 5.835Z" fill="white"/>
</svg>
