<svg width="12" height="15" viewBox="0 0 12 15" fill="none" xmlns="http://www.w3.org/2000/svg">
<path fill-rule="evenodd" clip-rule="evenodd" d="M2.83 0.833313H9.17C9.94267 0.833313 10.3287 0.833313 10.6407 0.94198C10.9348 1.04624 11.201 1.21692 11.4185 1.44077C11.636 1.66461 11.7989 1.93559 11.8947 2.23265C12 2.55398 12 2.95131 12 3.74665V13.0826C12 13.6546 11.3433 13.9586 10.928 13.5786C10.8115 13.471 10.6587 13.4112 10.5 13.4112C10.3413 13.4112 10.1885 13.471 10.072 13.5786L9.75 13.8733C9.54586 14.0621 9.27804 14.1669 9 14.1669C8.72196 14.1669 8.45414 14.0621 8.25 13.8733C8.04586 13.6845 7.77804 13.5797 7.5 13.5797C7.22196 13.5797 6.95414 13.6845 6.75 13.8733C6.54586 14.0621 6.27804 14.1669 6 14.1669C5.72196 14.1669 5.45414 14.0621 5.25 13.8733C5.04586 13.6845 4.77804 13.5797 4.5 13.5797C4.22196 13.5797 3.95414 13.6845 3.75 13.8733C3.54586 14.0621 3.27804 14.1669 3 14.1669C2.72196 14.1669 2.45414 14.0621 2.25 13.8733L1.928 13.5786C1.81148 13.471 1.65865 13.4112 1.5 13.4112C1.34135 13.4112 1.18852 13.471 1.072 13.5786C0.656667 13.9586 0 13.6546 0 13.0826V3.74665C0 2.95131 -9.93411e-09 2.55331 0.105333 2.23331C0.305333 1.62465 0.768667 1.14731 1.35933 0.94198C1.67133 0.833313 2.05733 0.833313 2.83 0.833313ZM2.66667 3.99998C2.53406 3.99998 2.40688 4.05266 2.31311 4.14643C2.21935 4.24019 2.16667 4.36737 2.16667 4.49998C2.16667 4.63259 2.21935 4.75976 2.31311 4.85353C2.40688 4.9473 2.53406 4.99998 2.66667 4.99998H3C3.13261 4.99998 3.25978 4.9473 3.35355 4.85353C3.44732 4.75976 3.5 4.63259 3.5 4.49998C3.5 4.36737 3.44732 4.24019 3.35355 4.14643C3.25978 4.05266 3.13261 3.99998 3 3.99998H2.66667ZM5 3.99998C4.86739 3.99998 4.74022 4.05266 4.64645 4.14643C4.55268 4.24019 4.5 4.36737 4.5 4.49998C4.5 4.63259 4.55268 4.75976 4.64645 4.85353C4.74022 4.9473 4.86739 4.99998 5 4.99998H9.33333C9.46594 4.99998 9.59312 4.9473 9.68689 4.85353C9.78066 4.75976 9.83333 4.63259 9.83333 4.49998C9.83333 4.36737 9.78066 4.24019 9.68689 4.14643C9.59312 4.05266 9.46594 3.99998 9.33333 3.99998H5ZM2.66667 6.33331C2.53406 6.33331 2.40688 6.38599 2.31311 6.47976C2.21935 6.57353 2.16667 6.70071 2.16667 6.83331C2.16667 6.96592 2.21935 7.0931 2.31311 7.18687C2.40688 7.28063 2.53406 7.33331 2.66667 7.33331H3C3.13261 7.33331 3.25978 7.28063 3.35355 7.18687C3.44732 7.0931 3.5 6.96592 3.5 6.83331C3.5 6.70071 3.44732 6.57353 3.35355 6.47976C3.25978 6.38599 3.13261 6.33331 3 6.33331H2.66667ZM5 6.33331C4.86739 6.33331 4.74022 6.38599 4.64645 6.47976C4.55268 6.57353 4.5 6.70071 4.5 6.83331C4.5 6.96592 4.55268 7.0931 4.64645 7.18687C4.74022 7.28063 4.86739 7.33331 5 7.33331H9.33333C9.46594 7.33331 9.59312 7.28063 9.68689 7.18687C9.78066 7.0931 9.83333 6.96592 9.83333 6.83331C9.83333 6.70071 9.78066 6.57353 9.68689 6.47976C9.59312 6.38599 9.46594 6.33331 9.33333 6.33331H5ZM2.66667 8.66665C2.53406 8.66665 2.40688 8.71933 2.31311 8.81309C2.21935 8.90686 2.16667 9.03404 2.16667 9.16665C2.16667 9.29925 2.21935 9.42643 2.31311 9.5202C2.40688 9.61397 2.53406 9.66665 2.66667 9.66665H3C3.13261 9.66665 3.25978 9.61397 3.35355 9.5202C3.44732 9.42643 3.5 9.29925 3.5 9.16665C3.5 9.03404 3.44732 8.90686 3.35355 8.81309C3.25978 8.71933 3.13261 8.66665 3 8.66665H2.66667ZM5 8.66665C4.86739 8.66665 4.74022 8.71933 4.64645 8.81309C4.55268 8.90686 4.5 9.03404 4.5 9.16665C4.5 9.29925 4.55268 9.42643 4.64645 9.5202C4.74022 9.61397 4.86739 9.66665 5 9.66665H9.33333C9.46594 9.66665 9.59312 9.61397 9.68689 9.5202C9.78066 9.42643 9.83333 9.29925 9.83333 9.16665C9.83333 9.03404 9.78066 8.90686 9.68689 8.81309C9.59312 8.71933 9.46594 8.66665 9.33333 8.66665H5Z" fill="white"/>
</svg>
