<svg width="34" height="20" viewBox="0 0 34 20" fill="none" xmlns="http://www.w3.org/2000/svg">
<path d="M23.2656 19.1352C23.0365 18.906 22.9165 18.6143 22.9056 18.2602C22.8956 17.906 23.0052 17.6143 23.2344 17.3852L29.3594 11.2602H1.64062C1.28646 11.2602 0.989375 11.1402 0.749375 10.9002C0.510209 10.661 0.390625 10.3643 0.390625 10.0102C0.390625 9.656 0.510209 9.35891 0.749375 9.11891C0.989375 8.87975 1.28646 8.76016 1.64062 8.76016H29.3594L23.2344 2.63516C23.0052 2.406 22.8956 2.11433 22.9056 1.76016C22.9165 1.406 23.0365 1.11433 23.2656 0.885162C23.4948 0.655995 23.7865 0.541412 24.1406 0.541412C24.4948 0.541412 24.7865 0.655995 25.0156 0.885162L33.2656 9.13516C33.3906 9.23933 33.4794 9.36933 33.5319 9.52516C33.5835 9.68183 33.6094 9.8435 33.6094 10.0102C33.6094 10.1768 33.5835 10.3331 33.5319 10.4789C33.4794 10.6247 33.3906 10.7602 33.2656 10.8852L25.0156 19.1352C24.7865 19.3643 24.4948 19.4789 24.1406 19.4789C23.7865 19.4789 23.4948 19.3643 23.2656 19.1352Z" fill="#222222"/>
</svg>
