<svg width="27" height="16" viewBox="0 0 27 16" fill="none" xmlns="http://www.w3.org/2000/svg">
<path d="M18.5125 15.3C18.3292 15.1167 18.2332 14.8833 18.2245 14.6C18.2165 14.3167 18.3042 14.0833 18.4875 13.9L23.3875 9H1.21249C0.929161 9 0.691494 8.904 0.499494 8.712C0.308161 8.52067 0.212494 8.28334 0.212494 8C0.212494 7.71667 0.308161 7.479 0.499494 7.287C0.691494 7.09567 0.929161 7 1.21249 7H23.3875L18.4875 2.1C18.3042 1.91667 18.2165 1.68334 18.2245 1.4C18.2332 1.11667 18.3292 0.883336 18.5125 0.700003C18.6958 0.516669 18.9292 0.425003 19.2125 0.425003C19.4958 0.425003 19.7292 0.516669 19.9125 0.700003L26.5125 7.3C26.6125 7.38334 26.6835 7.48734 26.7255 7.612C26.7668 7.73734 26.7875 7.86667 26.7875 8C26.7875 8.13334 26.7668 8.25834 26.7255 8.375C26.6835 8.49167 26.6125 8.6 26.5125 8.7L19.9125 15.3C19.7292 15.4833 19.4958 15.575 19.2125 15.575C18.9292 15.575 18.6958 15.4833 18.5125 15.3Z" fill="#222222"/>
</svg>
