<svg width="123" height="111" viewBox="0 0 123 111" fill="none" xmlns="http://www.w3.org/2000/svg">
<path d="M37.5 44H5C2.23858 44 0 41.7614 0 39V35.0711C0 33.745 0.53745 32.4743 1.45318 31.5152C9.06969 23.5377 9.0305 19.9641 1.5465 12.5002C0.574359 11.5307 0 10.2223 0 8.84934V5C0 2.23858 2.23858 0 5 0H32.5H37H118C120.761 0 123 2.23858 123 5V8.84934C123 10.2223 122.426 11.5307 121.454 12.5002C113.969 19.9641 113.93 23.5377 121.547 31.5152C122.463 32.4743 123 33.745 123 35.0711V39C123 41.7614 120.761 44 118 44H85.5C82.7386 44 80.5 46.2386 80.5 49V68C80.5 70.7614 78.2614 73 75.5 73H66.5C64.8431 73 63.5 74.3431 63.5 76C63.5 77.6569 64.8431 79 66.5 79H75.5C78.2614 79 80.5 81.2386 80.5 84V106C80.5 108.761 78.2614 111 75.5 111H61.5H47.5C44.7386 111 42.5 108.761 42.5 106V49C42.5 46.2386 40.2614 44 37.5 44Z" fill="white"/>
</svg>
