<svg width="19" height="15" viewBox="0 0 19 15" fill="none" xmlns="http://www.w3.org/2000/svg">
<path d="M18.1476 2.00001C17.4956 2.29168 16.7928 2.48334 16.0646 2.57501C16.8097 2.13334 17.3855 1.43334 17.6565 0.591677C16.9537 1.00834 16.1746 1.30001 15.3533 1.46668C14.6843 0.75001 13.7444 0.333344 12.6775 0.333344C10.6875 0.333344 9.06173 1.93334 9.06173 3.90834C9.06173 4.19168 9.09561 4.46668 9.15488 4.72501C6.14036 4.57501 3.45609 3.15001 1.6694 0.991677C1.35609 1.51668 1.17827 2.13334 1.17827 2.78334C1.17827 4.02501 1.81335 5.12501 2.79561 5.75001C2.1944 5.75001 1.63552 5.58334 1.1444 5.33334V5.35834C1.1444 7.09168 2.39762 8.54168 4.0573 8.86668C3.52445 9.01018 2.96504 9.03015 2.42303 8.92501C2.65301 9.63541 3.10344 10.257 3.71098 10.7025C4.31853 11.1479 5.05264 11.3948 5.81012 11.4083C4.5261 12.4087 2.93447 12.9494 1.29682 12.9417C1.00891 12.9417 0.721009 12.925 0.433105 12.8917C2.04198 13.9083 3.95569 14.5 6.00488 14.5C12.6775 14.5 16.344 9.05001 16.344 4.32501C16.344 4.16668 16.344 4.01668 16.3355 3.85834C17.0468 3.35834 17.6565 2.72501 18.1476 2.00001Z" fill="white"/>
</svg>
