<svg width="166" height="166" viewBox="0 0 166 166" fill="none" xmlns="http://www.w3.org/2000/svg">
<circle cx="83.66" cy="83.6602" r="79.86" fill="#2F80ED"/>
<path d="M83 0.500244C37.5095 0.500244 0.5 37.5097 0.5 83.0002C0.5 128.491 37.5095 165.5 83 165.5C128.491 165.5 165.5 128.491 165.5 83.0002C165.5 37.5097 128.491 0.500244 83 0.500244ZM17 83.0002C17 75.5835 18.287 68.4637 20.5558 61.806L33.5 74.7502L50 91.2502V107.75L66.5 124.25L74.75 132.5V148.431C42.2533 144.347 17 116.594 17 83.0002ZM135.223 123.202C129.835 118.863 121.668 116 116 116V107.75C116 103.374 114.262 99.1773 111.167 96.083C108.073 92.9886 103.876 91.2502 99.5 91.2502H66.5V66.5002C70.8761 66.5002 75.0729 64.7619 78.1673 61.6675C81.2616 58.5732 83 54.3763 83 50.0002V41.7502H91.25C95.6261 41.7502 99.8229 40.0119 102.917 36.9175C106.012 33.8232 107.75 29.6263 107.75 25.2502V21.8595C131.906 31.6687 149 55.3627 149 83.0002C148.999 97.559 144.151 111.703 135.223 123.202Z" fill="#56C4A9"/>
<path d="M109.41 107.09C107.004 107.093 104.698 108.05 102.996 109.751C101.295 111.453 100.338 113.759 100.335 116.165C100.335 123.931 108.585 129.798 108.936 130.046C109.076 130.139 109.242 130.189 109.41 130.189C109.579 130.189 109.744 130.139 109.885 130.046C110.235 129.798 118.485 123.931 118.485 116.165C118.483 113.759 117.526 111.453 115.824 109.751C114.123 108.05 111.816 107.093 109.41 107.09ZM109.41 112.865C110.063 112.865 110.701 113.059 111.244 113.421C111.786 113.784 112.209 114.299 112.459 114.902C112.709 115.505 112.774 116.169 112.647 116.809C112.52 117.449 112.205 118.037 111.744 118.499C111.282 118.96 110.694 119.275 110.054 119.402C109.414 119.529 108.75 119.464 108.147 119.214C107.544 118.964 107.029 118.541 106.666 117.999C106.304 117.456 106.11 116.818 106.11 116.165C106.11 115.29 106.458 114.451 107.077 113.832C107.696 113.213 108.535 112.865 109.41 112.865Z" fill="#CF5858"/>
<path d="M44.7303 51.6503C42.3243 51.653 40.0176 52.61 38.3163 54.3113C36.615 56.0126 35.658 58.3193 35.6553 60.7253C35.6553 68.4906 43.9053 74.3584 44.2559 74.6059C44.3964 74.6995 44.5615 74.7494 44.7303 74.7494C44.8991 74.7494 45.0641 74.6995 45.2046 74.6059C45.5553 74.3584 53.8053 68.4906 53.8053 60.7253C53.8025 58.3193 52.8456 56.0126 51.1443 54.3113C49.443 52.61 47.1363 51.653 44.7303 51.6503ZM44.7303 57.4253C45.383 57.4253 46.021 57.6188 46.5637 57.9814C47.1063 58.344 47.5293 58.8594 47.7791 59.4624C48.0288 60.0654 48.0942 60.7289 47.9669 61.3691C47.8395 62.0092 47.5252 62.5972 47.0637 63.0587C46.6022 63.5202 46.0142 63.8345 45.3741 63.9619C44.7339 64.0892 44.0704 64.0238 43.4674 63.7741C42.8644 63.5243 42.349 63.1013 41.9864 62.5587C41.6238 62.016 41.4303 61.3779 41.4303 60.7253C41.4303 59.8501 41.778 59.0107 42.3968 58.3918C43.0157 57.7729 43.8551 57.4253 44.7303 57.4253Z" fill="#CF5858"/>
<path d="M84.3304 12.0502C81.9244 12.053 79.6177 13.01 77.9164 14.7113C76.2151 16.4126 75.2581 18.7192 75.2554 21.1252C75.2554 28.8905 83.5054 34.7584 83.856 35.0059C83.9965 35.0994 84.1616 35.1493 84.3304 35.1493C84.4992 35.1493 84.6642 35.0994 84.8047 35.0059C85.1554 34.7584 93.4054 28.8905 93.4054 21.1252C93.4026 18.7192 92.4457 16.4126 90.7444 14.7113C89.043 13.01 86.7364 12.053 84.3304 12.0502ZM84.3304 17.8252C84.9831 17.8252 85.6211 18.0188 86.1638 18.3814C86.7064 18.744 87.1294 19.2594 87.3792 19.8624C87.6289 20.4654 87.6943 21.1289 87.567 21.769C87.4396 22.4092 87.1253 22.9972 86.6638 23.4587C86.2023 23.9202 85.6143 24.2345 84.9742 24.3618C84.334 24.4892 83.6705 24.4238 83.0675 24.174C82.4645 23.9243 81.9491 23.5013 81.5865 22.9586C81.2239 22.4159 81.0304 21.7779 81.0304 21.1252C81.0304 20.25 81.378 19.4106 81.9969 18.7918C82.6158 18.1729 83.4552 17.8252 84.3304 17.8252Z" fill="#CF5858"/>
</svg>
